<svg width="121" height="22" viewBox="0 0 121 22" fill="none" xmlns="http://www.w3.org/2000/svg">
<g clip-path="url(#clip0_1_3)">
<rect width="121" height="22" fill="#00072D"/>
<path d="M24.128 22L15.872 -0.400002H21.856L27.216 15.248L32.48 -0.400002H38.368L30.176 22H24.128ZM37.3933 22L45.7613 -0.400002H51.9213L60.3693 22H54.3853L52.8013 17.456H44.7693L43.2173 22H37.3933ZM45.9693 13.024H51.5693L48.7533 5.28L45.9693 13.024ZM72.2683 22.48C70.1669 22.48 68.4016 22.064 66.9723 21.232C65.5536 20.4 64.4816 19.2587 63.7563 17.808C63.0309 16.3467 62.6683 14.672 62.6683 12.784V-0.400002H67.9803V12.976C67.9803 14.5013 68.3589 15.6373 69.1163 16.384C69.8736 17.12 70.9243 17.488 72.2683 17.488C73.6016 17.488 74.6416 17.12 75.3883 16.384C76.1456 15.6373 76.5243 14.5013 76.5243 12.976V-0.400002H81.8523V12.784C81.8523 14.6613 81.4896 16.3307 80.7643 17.792C80.0389 19.2427 78.9616 20.3893 77.5323 21.232C76.1136 22.064 74.3589 22.48 72.2683 22.48ZM87.015 22V-0.400002H92.327V17.152H101.319V22H87.015ZM106.014 22V4.448H100.046V-0.400002H117.326V4.448H111.358V22H106.014Z" fill="white"/>
<path d="M9 7.125C9.6213 7.125 10.125 6.6213 10.125 6C10.125 5.3787 9.6213 4.875 9 4.875C8.3787 4.875 7.875 5.3787 7.875 6C7.875 6.6213 8.3787 7.125 9 7.125Z" fill="white"/>
<path d="M0 2.8125C0 1.2592 1.2592 0 2.8125 0H12.1875C13.7408 0 15 1.2592 15 2.8125V9.1875C15 10.7408 13.7408 12 12.1875 12H2.8125C1.2592 12 0 10.7408 0 9.1875V2.8125ZM2.8125 2.25C2.50184 2.25 2.25 2.50184 2.25 2.8125V9.1875C2.25 9.49815 2.50184 9.75 2.8125 9.75C3.12316 9.75 3.375 9.49815 3.375 9.1875V2.8125C3.375 2.50184 3.12316 2.25 2.8125 2.25ZM6.96023 3.16475C6.74055 2.94509 6.38445 2.94509 6.16477 3.16475C5.94508 3.38442 5.94508 3.74058 6.16477 3.96025L7.06155 4.857C6.86355 5.19202 6.75 5.5827 6.75 6C6.75 6.4173 6.86355 6.80798 7.06155 7.143L6.16477 8.03977C5.94508 8.25945 5.94508 8.61555 6.16477 8.83523C6.38445 9.0549 6.74055 9.0549 6.96023 8.83523L7.857 7.93845C8.19202 8.13645 8.5827 8.25 9 8.25C9.4173 8.25 9.80798 8.13645 10.143 7.93845L11.0398 8.83523C11.2594 9.0549 11.6156 9.0549 11.8352 8.83523C12.0549 8.61555 12.0549 8.25945 11.8352 8.03977L10.9385 7.143C11.1365 6.80798 11.25 6.4173 11.25 6C11.25 5.5827 11.1365 5.19202 10.9385 4.857L11.8352 3.96025C12.0549 3.74058 12.0549 3.38442 11.8352 3.16475C11.6156 2.94509 11.2594 2.94509 11.0398 3.16475L10.143 4.06152C9.80798 3.86359 9.4173 3.75 9 3.75C8.5827 3.75 8.19202 3.86359 7.857 4.06152L6.96023 3.16475Z" fill="white"/>
</g>
<defs>
<clipPath id="clip0_1_3">
<rect width="121" height="22" fill="white"/>
</clipPath>
</defs>
</svg>
